<svg xmlns="http://www.w3.org/2000/svg" viewBox="0 0 64 64">
  <!-- Background circle -->
  <circle cx="32" cy="32" r="32" fill="#0d3320"/>
  <!-- Outer ring -->
  <circle cx="32" cy="32" r="28" fill="none" stroke="#1A6B50" stroke-width="2.5"/>
  <!-- Phone handset icon (white) -->
  <path d="M22 20c0-1.1.9-2 2-2h3.5c.8 0 1.5.6 1.6 1.4l1 5.5c.1.7-.2 1.4-.8 1.8l-2.2 1.5c1.5 3.2 4 5.7 7.2 7.2l1.5-2.2c.4-.6 1.1-.9 1.8-.8l5.5 1c.8.1 1.4.8 1.4 1.6V40c0 1.1-.9 2-2 2-11 0-20-9-20-20z"
        fill="white"/>
</svg>
